# xmcd
#
# Track frame offsets: 
#        150
#        12673
#        29277
#        44507
#        65166
#        75986
#        92419
#        105524
#        119836
#        130946
#        141568
#        159577
#        171253
#        194926
#        204802
#
# Disc length: 2914 seconds
#
# Revision: 0
# Processed by: cddbd v1.5.2PL0 Copyright (c) Steve Scherf et al.
# Submitted via: ExactAudioCopy v1.0b1
#
DISCID=db0b600f
DTITLE=Unborn Mind - Love and Fear
DYEAR=2013
DGENRE=Blues Rock
TTITLE0=Love and Fear
TTITLE1=Now That I Found You
TTITLE2=Stop Drop and Rock And Roll
TTITLE3=Between You And Me
TTITLE4=Stand Up Boyz
TTITLE5=Lost
TTITLE6=Touch Your Face
TTITLE7=Tear Down The Walls (Song For Sarah)
TTITLE8=The Blind Man
TTITLE9=No One Gets Out Alive
TTITLE10=Veracruz
TTITLE11=Rain On Me
TTITLE12=Everything Burns
TTITLE13=We Walk Alone
TTITLE14=Caffeine Jones
EXTD=
EXTT0=
EXTT1=
EXTT2=
EXTT3=
EXTT4=
EXTT5=
EXTT6=
EXTT7=
EXTT8=
EXTT9=
EXTT10=
EXTT11=
EXTT12=
EXTT13=
EXTT14=
PLAYORDER=
